<?xml version="1.0" encoding="utf-8"?>
<!-- Generator: Adobe Illustrator 23.0.3, SVG Export Plug-In . SVG Version: 6.00 Build 0)  -->
<svg version="1.1" id="Layer_3" xmlns="http://www.w3.org/2000/svg" xmlns:xlink="http://www.w3.org/1999/xlink" x="0px" y="0px"
	 viewBox="0 0 468 225.7" style="enable-background:new 0 0 468 225.7;" xml:space="preserve">
<style type="text/css">
	.st0{display:none;}
	.st1{display:none;opacity:0.41;}
</style>
<path class="st0" d="M96.5,61.9c-0.1,0-0.2,0-0.4,0.1c-3.3,1.9-6.1,4.6-8.6,7.5c-0.2,0.3-0.3,0.7-0.1,1c1.7,3.4,1.7,7.8,0,11.1
	c0,0-2.4,3.5,0.2,6.1c0.4,0.4,0.9,0.7-0.4,1.8c-4.6,4-7.3,9.6-8.2,15.1c-0.1,0.3,0.2,0.6,0.4,0.8c4.5,6.3,5.9,18,6.4,24.4
	c0.1,1.2,0.3,5.5,0.4,7.5c1,0.5,1.8,1.1,2.6,1.6c2,1.4,3.9,2.6,7.6,2.6h0c3.7,0,5.6-1.2,7.6-2.6c0.8-0.5,1.6-1.1,2.6-1.6
	c0.1-2,0.4-6.4,0.4-7.5c0.5-6.4,1.9-18.1,6.4-24.4c0.2-0.3,0.4-0.5,0.4-0.8c-0.9-5.5-3.5-11.1-8.2-15.1c-1.3-1.1-0.8-1.4-0.4-1.8
	c2.6-2.5,0.2-6,0.2-6.1c-1.7-3.4-1.7-7.8,0-11.1c0.2-0.3,0.1-0.7-0.1-1c-2.5-3-5.3-5.6-8.6-7.5C96.7,61.9,96.6,61.9,96.5,61.9z
	 M90.6,86.6c-0.3,0.1-0.4,0.1-0.8,0.1c-0.8,0-1.4-0.6-1.5-1.5c-0.1-0.6,0.1-1.2,0.4-1.6c0.4-0.5,1.1-0.9,1.1-0.9
	c0.3,1.1,0.8,2.7,1.1,3.4C90.9,86.4,90.8,86.6,90.6,86.6z M99.9,93.9c-1.5,1.5-5,1.6-6.5,0c-0.8-0.8-1-2.4-1-3.5
	c0-0.5,0.5-0.8,0.9-0.6c0.6,0.3,1.6,0.9,3.2,0.9c1.7,0,2.8-0.7,3.5-1.1c0.4-0.3,1,0.1,1,0.6C100.9,91.5,100.7,93.1,99.9,93.9z
	 M90.9,79.3c0-1.9,0.2-3.9,3-3.9h5.4c2.5,0,3.1,2.1,3.1,3.6c0,2.3-1.4,6.2-2.3,7.8c-1.6,2.8-5.4,3-7,0.1
	C92.4,85.8,90.9,82.2,90.9,79.3z M104.8,85.2c-0.1,0.9-0.8,1.5-1.5,1.5c-0.4,0-0.5,0-0.8-0.1c-0.2,0-0.3-0.3-0.2-0.5
	c0.3-0.8,0.8-2.3,1.1-3.4c0,0,0.7,0.5,1.1,0.9C104.7,84,104.9,84.6,104.8,85.2z M113.1,135.6c0.6-0.1,1.2-0.1,1.8-0.1c0,0,0,0,0,0
	c3.2,0,4.6,0.9,5.9,2.1c0-9.5,1.2-30,12.8-33.4c0.1,0,0.3-0.2,0.3-0.3c0-0.2,0-1.1-0.7-1c-3,0.5-5.2,1.3-7.9,4.2
	c-2.4,2.5-4.6,6.6-4.6,6.6c-0.3,0.6-1.1,0.6-1.4,0c-0.8-1.6-0.7-4-0.8-6.2c0-0.4-0.5-0.7-0.9-0.5l-2,1.3c-0.1,0.1-0.2,0.2-0.2,0.3
	C112.9,117.9,112.7,126.5,113.1,135.6z M70.8,92.1c0-0.3,0-1.1,0-1.6c0-0.2,0.1-0.3,0.3-0.3c1.1-0.1,2.2-0.1,2.6,0
	c0.1,0,0.2,0.1,0.2,0.2c0.2,6.7,0.6,13.5,4.9,18.8c0,0.1,0.1,0.2,0.1,0.2c2.3,8,1.9,19.5,1.3,26.4c-2.6,0.3-4.5,1.2-6.5,2.3
	l-1.1-22.8c0-0.5,0.6-0.7,0.9-0.3c0.4,0.6,0.9,1.2,1.4,1.7c0.2,0.2,0.6,0.2,0.8-0.1c1.8-2.6,1.3-5.5-0.1-8.1
	c-2.7-5.1-2.5-10.7-3.2-15.5c0-0.3-0.2-0.6-0.5-0.6C71.3,92.3,70.8,92.5,70.8,92.1z M65.7,78.5c0.6,1,0.7,2.4,0.2,3.5
	c-0.9,2-2.9,2.7-4.6,2.5c-1.9-0.2-4.1-1.7-4.5-4.6c-0.2-1.9,0.3-3.7,1.6-5c1.2-1.3,3-2,4.9-1.9c6.6,0.5,6.7,7,6.7,11.1
	c0,0.1-0.1,0.2-0.2,0.2l-1.8,0c-0.1,0-0.2-0.1-0.2-0.2c0-5.2-0.5-8.6-4.7-8.9c-1.2-0.1-2.4,0.4-3.1,1.2c-0.8,0.8-1.1,2-1,3.2
	c0.2,1.7,1.4,2.5,2.5,2.6c0.2,0,1.8,0.1,2.4-1.2c0.2-0.4,0.2-1.1-0.1-1.5c-0.2-0.3-0.4-0.6-0.8-0.5c-0.2,0.1-0.4,0.3-0.5,0.4
	c-0.1,0.2-0.3,0.8-1.1,0.7c-0.6-0.1-1-0.7-0.9-1.3c0.2-1.2,1.4-2,2.6-2C64.3,77,65.1,77.6,65.7,78.5z M69.7,88.9h-1.8
	c-0.1,0-0.2,0.1-0.2,0.2v5.7c0,0.1,0.1,0.2,0.2,0.2h1.8c0.1,0,0.2-0.1,0.2-0.2v-5.7C69.9,89,69.9,88.9,69.7,88.9z M70.9,86.1
	c0-0.4-0.3-0.8-0.8-0.8h-2.6c-0.4,0-0.8,0.3-0.8,0.8V87c0,0.4,0.3,0.8,0.8,0.8h2.6c0.4,0,0.8-0.3,0.8-0.8V86.1z M67.7,140.7v-39.9
	c0-0.1,0.1-0.2,0.2-0.2h1.9c0.1,0,0.2,0.1,0.2,0.2v39.1C69.2,140.2,68.5,140.4,67.7,140.7z M131.2,94.9l-2.8-2.8c0,0,0,0,0,0v-4.3
	c0,0,0,0,0,0l1-0.5c0.2-0.1,0.2-0.3,0.2-0.5l-4.1-8c-0.1-0.3-0.5-0.3-0.6,0l-4.1,8c-0.1,0.2,0,0.4,0.2,0.5l1,0.5c0,0,0,0,0,0V92
	c0,0,0,0,0,0l-2.4,2.4c-0.3,0.3-0.4,0.6-0.4,1v4.8c0,0.3,0.2,0.5,0.5,0.5h0.8c0.3,0,0.5-0.2,0.5-0.5v-4.6c0,0,0,0,0-0.1l4.2-4.2
	c0.1,0,0.1,0,0.1,0l4.2,4.2c0,0,0,0,0,0.1v4.6c0,0.3,0.2,0.5,0.5,0.5h0.8c0.3,0,0.5-0.2,0.5-0.5L131.2,94.9
	C131.2,94.9,131.2,94.9,131.2,94.9z M124.9,82.3c0.1-0.1,0.3-0.1,0.3,0l2.1,4c0,0,0,0.1-0.1,0.1h-4.4c0,0-0.1,0-0.1-0.1L124.9,82.3z
	 M125.1,89.4C125.1,89.4,125.1,89.4,125.1,89.4c-0.4,0-0.7,0.1-1,0.4l-0.6,0.6v-2.3c0,0,0-0.1,0.1-0.1h3.1c0,0,0.1,0,0.1,0.1v2.3
	l-0.6-0.6C125.8,89.5,125.5,89.4,125.1,89.4z M127.9,98.2v2.2c0,0.3-0.2,0.5-0.5,0.5h-0.8c-0.3,0-0.5-0.2-0.5-0.5V98
	c0-0.5-0.4-0.9-0.9-0.9s-0.9,0.4-0.9,0.9v2.3c0,0.3-0.2,0.5-0.5,0.5H123c-0.3,0-0.5-0.2-0.5-0.5V98c0-1.6,1.5-3,3.2-2.7
	C127,95.6,127.9,96.9,127.9,98.2z"/>
<g>
	<path d="M126.6,100.8h0.8c0.3,0,0.5-0.2,0.5-0.5l0-2.2c0-1.3-0.9-2.6-2.2-2.8c-1.7-0.3-3.2,1-3.2,2.7v2.3c0,0.3,0.2,0.5,0.5,0.5
		h0.8c0.3,0,0.5-0.2,0.5-0.5V98c0-0.5,0.4-0.9,0.9-0.9s0.9,0.4,0.9,0.9v2.3C126.1,100.6,126.3,100.8,126.6,100.8z"/>
	<path d="M119.5,100.8h0.8c0.3,0,0.5-0.2,0.5-0.5v-4.6c0,0,0,0,0-0.1l4.2-4.2c0.1,0,0.1,0,0.1,0l4.2,4.2c0,0,0,0,0,0.1v4.6
		c0,0.3,0.2,0.5,0.5,0.5h0.8c0.3,0,0.5-0.2,0.5-0.5V95c0,0,0,0,0-0.1l-2.8-2.8c0,0,0,0,0,0v-4.3c0,0,0,0,0,0l1-0.5
		c0.2-0.1,0.2-0.3,0.2-0.5l-4.1-8c-0.1-0.3-0.5-0.3-0.6,0l-4.1,8c-0.1,0.2,0,0.4,0.2,0.5l1,0.5c0,0,0,0,0,0V92c0,0,0,0,0,0l-2.4,2.4
		c-0.3,0.3-0.4,0.6-0.4,1v4.8C119,100.6,119.2,100.8,119.5,100.8z M126.7,90.4l-0.6-0.6c-0.3-0.3-0.6-0.4-1-0.4c0,0,0,0,0,0
		c-0.4,0-0.7,0.1-1,0.4l-0.6,0.6v-2.3c0,0,0-0.1,0.1-0.1h3.1c0,0,0.1,0,0.1,0.1V90.4z M124.9,82.3c0.1-0.1,0.3-0.1,0.3,0l2.1,4
		c0,0,0,0.1-0.1,0.1h-4.4c0,0-0.1,0-0.1-0.1L124.9,82.3z"/>
	<path d="M133.4,102.9c-3,0.5-5.2,1.3-7.9,4.2c-2.4,2.5-4.6,6.6-4.6,6.6c-0.3,0.6-1.1,0.6-1.4,0c-0.8-1.6-0.7-4-0.8-6.2
		c0-0.4-0.5-0.7-0.9-0.5l-2,1.3c-0.1,0.1-0.2,0.2-0.2,0.3c-2.6,9.3-2.8,17.3-2.4,26.5c0,0,0,0.3,0.1,0.6c0.6-0.1,1.1-0.1,1.8-0.1
		c2.9,0,4.7,0.6,5.9,1.5c0-0.1,0-0.1,0-0.2c0-9.5,1.2-29.3,12.8-32.7c0.1,0,0.3-0.2,0.3-0.3C134,103.7,134,102.8,133.4,102.9z"/>
	<path d="M69.7,88.9h-1.8c-0.1,0-0.2,0.1-0.2,0.2v5.7c0,0.1,0.1,0.2,0.2,0.2h1.8c0.1,0,0.2-0.1,0.2-0.2v-5.7
		C69.9,89,69.9,88.9,69.7,88.9z"/>
	<path d="M70.9,86.1c0-0.4-0.3-0.8-0.8-0.8h-2.6c-0.4,0-0.8,0.3-0.8,0.8V87c0,0.4,0.3,0.8,0.8,0.8h2.6c0.4,0,0.8-0.3,0.8-0.8V86.1z"
		/>
	<path d="M113.9,104.6c-0.9-5.5-3.5-11.1-8.2-15.1c-1.3-1.1-0.8-1.4-0.4-1.8c1-1,1.3-2.1,1.2-3.1c3.2-2.9,5.1-7,5.1-11.3
		c0-8.4-6.8-15.2-15.2-15.2s-15.2,6.8-15.2,15.2c0,4.3,1.9,8.5,5.1,11.3c-0.1,1,0.2,2.1,1.2,3.1c0.4,0.4,0.9,0.7-0.4,1.8
		c-4.6,4-7.3,9.6-8.2,15.1c-0.1,0.3,0.2,0.6,0.4,0.8c4.5,6.3,5.9,18,6.4,24.4c0.1,1.1,0.3,4.4,0.4,6.5c1.3,0.6,2.7,1.5,3.5,2.3
		c1.4,1.4,2.4,2.7,6.2,2.8c4.3,0.1,7.1-1.9,9.7-3.3c0.3-0.2,0.6-0.3,0.9-0.5c0.1-0.6,0.1-0.8,0.1-0.8c0.1-2,0.4-5.8,0.4-7
		c0.5-6.4,1.9-18.1,6.4-24.4C113.7,105.2,113.9,104.9,113.9,104.6z M87.4,81.6c0,0-0.1,0.2-0.3,0.6c-2.3-2.4-3.6-5.6-3.6-9
		c0-7.2,5.8-13,13-13s13,5.8,13,13c0,3.4-1.3,6.5-3.6,9c-0.2-0.3-0.3-0.6-0.3-0.6c-1.7-3.4-1.7-7.8,0-11.1c0.2-0.3,0.1-0.7-0.1-1
		c-2.5-3-5.3-5.6-8.6-7.5c-0.1-0.1-0.2-0.1-0.4-0.1c-0.1,0-0.2,0-0.4,0.1c-3.3,1.9-6.1,4.6-8.6,7.5c-0.2,0.3-0.3,0.7-0.1,1
		C89.1,73.9,89,78.3,87.4,81.6z M90.6,86.6c-0.3,0.1-0.4,0.1-0.8,0.1c-0.8,0-1.4-0.6-1.5-1.5c-0.1-0.6,0.1-1.2,0.4-1.6
		c0.4-0.5,1.1-0.9,1.1-0.9c0.3,1.1,0.8,2.7,1.1,3.4C90.9,86.4,90.8,86.6,90.6,86.6z M93.9,75.4h5.4c2.5,0,3.1,2.1,3.1,3.6
		c0,2.3-1.4,6.2-2.3,7.8c-1.6,2.8-5.4,3-7,0.1c-0.7-1.2-2.1-4.7-2.1-7.6C90.9,77.4,91,75.4,93.9,75.4z M99.9,93.9
		c-1.5,1.5-5,1.6-6.5,0c-0.8-0.8-1-2.4-1-3.5c0-0.5,0.5-0.8,0.9-0.6c0.6,0.3,1.6,0.9,3.2,0.9c1.7,0,2.8-0.7,3.5-1.1
		c0.4-0.3,1,0.1,1,0.6C100.9,91.5,100.7,93.1,99.9,93.9z M104.8,85.2c-0.1,0.9-0.8,1.5-1.5,1.5c-0.4,0-0.5,0-0.8-0.1
		c-0.2,0-0.3-0.3-0.2-0.5c0.3-0.8,0.8-2.3,1.1-3.4c0,0,0.7,0.5,1.1,0.9C104.7,84,104.9,84.6,104.8,85.2z"/>
	<path d="M63.2,76.9c-1.3-0.1-2.4,0.8-2.6,2c-0.1,0.6,0.3,1.2,0.9,1.3c0.7,0.1,1-0.5,1.1-0.7c0.1-0.2,0.2-0.4,0.5-0.4
		c0.4-0.1,0.6,0.2,0.8,0.5c0.2,0.4,0.3,1.1,0.1,1.5c-0.6,1.4-2.2,1.2-2.4,1.2c-1.1-0.1-2.3-1-2.5-2.6c-0.2-1.3,0.2-2.4,1-3.2
		c0.8-0.8,1.9-1.3,3.1-1.2c4.1,0.3,4.7,3.7,4.7,8.9c0,0.1,0.1,0.2,0.2,0.2l1.8,0c0.1,0,0.2-0.1,0.2-0.2c0-4.1-0.1-10.7-6.7-11.1
		c-1.9-0.1-3.7,0.6-4.9,1.9c-1.3,1.3-1.8,3.1-1.6,5c0.4,2.9,2.6,4.4,4.5,4.6c1.7,0.2,3.7-0.6,4.6-2.5c0.5-1.1,0.4-2.5-0.2-3.5
		C65.1,77.6,64.3,77,63.2,76.9z"/>
	<path d="M69.7,100.6h-1.9c-0.1,0-0.2,0.1-0.2,0.2v39.9c0.8-0.3,1.5-0.6,2.3-0.9v-39C69.9,100.7,69.8,100.6,69.7,100.6z"/>
	<path d="M78.6,109.1c-4.3-5.2-4.6-12-4.9-18.8c0-0.1-0.1-0.2-0.2-0.2c-0.4-0.1-1.4,0-2.6,0c-0.2,0-0.3,0.1-0.3,0.3
		c0,0.5,0,1.3,0,1.6c0,0.4,0.6,0.3,1,0.3c0.3,0,0.5,0.3,0.5,0.6c0.7,4.8,0.5,10.4,3.2,15.5c1.4,2.6,1.9,5.5,0.1,8.1
		c-0.2,0.3-0.6,0.3-0.8,0.1c-0.6-0.6-1-1.1-1.4-1.7c-0.3-0.4-0.9-0.2-0.9,0.3l1.1,22.3c0,0.1,0,0.3,0,0.4c1.9-1,3.8-1.9,6.4-2.1
		c0-0.2,0.1-0.4,0.1-0.6c0.6-6.9,1-17.8-1.3-25.8C78.7,109.3,78.7,109.2,78.6,109.1z"/>
</g>
<path class="st1" d="M62.8,145c-4.2,0-6.4-1-7.6-3.4l2.7-1.3c0.3,0.6,0.9,1.7,4.8,1.7c4.2,0,7-1.5,9.7-3c2.7-1.5,5.2-2.8,9.3-2.8
	c4.3,0,6,1.6,7.5,3c1.4,1.4,2.8,2.7,6.8,2.7c4.3,0,7.1-1.6,9.7-3c2.7-1.5,5.2-2.8,9.3-2.8c4.3,0,6,1.6,7.5,3
	c1.5,1.4,2.8,2.7,6.6,2.7c0.1,0,0.1,0,0.2,0c3.5,0,5.6-1.2,6.7-3.8l2.8,1.1c-1.5,3.8-4.7,5.7-9.4,5.7c-5.1,0.1-7.3-2-8.9-3.5
	c-1.4-1.3-2.3-2.2-5.5-2.2c-3.3,0-5.3,1.1-7.9,2.5c-2.7,1.5-6.1,3.3-11.1,3.3c-5.2,0-7.2-2-8.8-3.5c-1.3-1.3-2.3-2.2-5.4-2.2
	c-3.3,0-5.3,1.1-7.9,2.5C71.1,143.2,67.7,145,62.8,145z"/>
<path d="M176.1,107.6l-16.5-45.8c-0.5-1,0.1-1.8,1-1.8h9c0.8,0,1.4,0.3,1.6,1.1l11.2,33.7l11.2-33.7c0.3-0.8,0.8-1.1,1.6-1.1h9
	c1,0,1.4,0.7,1,1.8l-16.5,45.8c-0.3,0.8-0.8,1.2-1.6,1.2h-9.8C176.9,108.8,176.3,108.5,176.1,107.6z M201.9,92.6
	c0-9.8,6.6-16.9,15.7-16.9c4,0,7.2,1.3,9.6,3.5v-1.5c0-0.9,0.5-1.4,1.4-1.4h7.5c0.9,0,1.4,0.5,1.4,1.4v19.5c0,2.7,1.4,3.2,2.9,3.2
	c0.8,0,1.4,0.3,1.4,1.4v5.9c0,1.6-1.6,1.8-3.2,1.8c-4.6,0-7.5-2.1-9.5-4.7c-2.7,2.9-6.3,4.7-11.2,4.7
	C208.5,109.5,201.9,102.3,201.9,92.6z M208.6,65.2c0-3.2,2.6-5.7,5.7-5.7c3.1,0,5.7,2.5,5.7,5.7c0,3.1-2.6,5.7-5.7,5.7
	C211.2,70.8,208.6,68.2,208.6,65.2z M227.7,92.6c0-4.3-3.3-7.7-7.7-7.7c-4.4,0-7.7,3.4-7.7,7.7s3.3,7.7,7.7,7.7
	C224.4,100.3,227.7,96.8,227.7,92.6z M223.8,65.2c0-3.2,2.6-5.7,5.7-5.7c3.1,0,5.7,2.5,5.7,5.7c0,3.1-2.6,5.7-5.7,5.7
	C226.4,70.8,223.8,68.2,223.8,65.2z M244.4,106.9l12-14.4L244.2,78c-0.6-0.8-0.3-1.7,0.8-1.7h9.1c0.7,0,1.2,0.3,1.7,0.8l6.9,8.1
	l6.9-8.1c0.5-0.5,1-0.8,1.8-0.8h9.2c1.1,0,1.4,0.9,0.8,1.7l-12.2,14.5l12,14.4c0.8,1,0.5,2-0.6,2h-9.2c-0.8,0-1.2-0.3-1.8-0.8
	l-6.8-8l-6.8,8c-0.5,0.6-1,0.8-1.7,0.8H245C243.9,108.8,243.7,107.8,244.4,106.9z M280,123.8c-0.8-0.2-1.1-0.7-1.1-1.5v-6
	c0-1,0.6-1.3,1.6-1.1c0.5,0.1,1.2,0.1,1.8,0.1c2.4,0,4.2-1.1,4.2-4.3V77.7c0-0.9,0.5-1.4,1.4-1.4h7.5c0.9,0,1.4,0.5,1.4,1.4v34.6
	c0,7.7-4.7,12.2-12,12.2C283,124.5,281.4,124.3,280,123.8z M286,65.2c0-3.2,2.6-5.7,5.7-5.7c3.1,0,5.7,2.5,5.7,5.7
	c0,3.1-2.6,5.7-5.7,5.7C288.6,70.8,286,68.3,286,65.2z M301.6,92.6c0-9.8,7.2-16.9,18.1-16.9c10.9,0,18,7.2,18,16.9
	c0,9.8-7.2,16.9-18,16.9C308.9,109.5,301.6,102.3,301.6,92.6z M306.6,65.2c0-3.2,2.6-5.7,5.7-5.7c3.1,0,5.7,2.5,5.7,5.7
	c0,3.1-2.6,5.7-5.7,5.7C309.2,70.8,306.6,68.2,306.6,65.2z M327.4,92.6c0-4.4-3.3-7.7-7.7-7.7c-4.5,0.1-7.7,3.3-7.7,7.7
	c0,4.4,3.3,7.6,7.7,7.7C324.1,100.2,327.4,96.9,327.4,92.6z M321.9,65.2c0-3.2,2.6-5.7,5.7-5.7c3.1,0,5.7,2.5,5.7,5.7
	c0,3.1-2.6,5.7-5.7,5.7C324.5,70.8,321.9,68.2,321.9,65.2z M163.9,165.4v-46.8c0-0.9,0.5-1.4,1.4-1.4h7.5c0.9,0,1.4,0.5,1.4,1.4V146
	l10.6-11c0.5-0.6,1-0.7,1.7-0.7h9.1c1.2,0,1.4,1,0.7,1.8L183.8,149l13.9,16c0.8,0.9,0.4,1.8-0.7,1.8h-10.1c-0.8,0-1.3-0.3-1.8-0.8
	l-10.8-14.1v13.6c0,0.8-0.5,1.4-1.4,1.4h-7.5C164.5,166.8,163.9,166.3,163.9,165.4z M197.5,150.6c0-9.8,7.2-16.9,18.1-16.9
	c10.9,0,18,7.2,18,16.9c0,9.8-7.2,16.9-18,16.9C204.7,167.5,197.5,160.3,197.5,150.6z M223.3,150.6c0-4.4-3.3-7.7-7.7-7.7
	c-4.5,0.1-7.7,3.3-7.7,7.7c0,4.4,3.2,7.6,7.7,7.7C220,158.2,223.3,154.9,223.3,150.6z M238.2,165.4v-29.8c0-0.9,0.5-1.4,1.4-1.4h7.7
	c0.8,0,1.4,0.5,1.4,1.4v2.6c2.1-2.9,5.1-4.6,8.8-4.6c4.2,0,7.4,2.3,9.3,5.7c2-3.6,5.6-5.7,10.2-5.7c7.1,0,11.1,5,11.1,12.6v19.2
	c0,0.8-0.5,1.4-1.4,1.4h-7.6c-0.9,0-1.4-0.5-1.4-1.4V148c0-3.6-1.7-5.1-4.3-5.1c-3,0-5,2-5,5.9v16.7c0,0.8-0.5,1.4-1.4,1.4h-7.6
	c-0.9,0-1.4-0.5-1.4-1.4V148c0-3.6-1.8-5.1-4.4-5.1c-3,0-5,2-5,5.9v16.7c0,0.8-0.5,1.4-1.4,1.4h-7.7
	C238.6,166.8,238.2,166.3,238.2,165.4z M295.5,165.4v-29.8c0-0.9,0.5-1.4,1.4-1.4h7.7c0.8,0,1.4,0.5,1.4,1.4v2.6
	c2.1-2.9,5.1-4.6,8.8-4.6c4.2,0,7.4,2.3,9.3,5.7c2-3.6,5.6-5.7,10.2-5.7c7.2,0,11.1,5,11.1,12.6v19.2c0,0.8-0.5,1.4-1.4,1.4h-7.6
	c-0.9,0-1.4-0.5-1.4-1.4V148c0-3.6-1.7-5.1-4.3-5.1c-3,0-5,2-5,5.9v16.7c0,0.8-0.5,1.4-1.4,1.4h-7.6c-0.9,0-1.4-0.5-1.4-1.4V148
	c0-3.6-1.8-5.1-4.4-5.1c-3,0-5,2-5,5.9v16.7c0,0.8-0.5,1.4-1.4,1.4h-7.7C295.9,166.8,295.5,166.3,295.5,165.4z M351.2,153.5v-17.9
	c0-0.9,0.5-1.4,1.4-1.4h7.6c0.9,0,1.4,0.5,1.4,1.4V153c0,3.9,2.1,5.3,4.9,5.3s4.9-1.4,4.9-5.3v-17.3c0-0.9,0.5-1.4,1.4-1.4h7.5
	c0.9,0,1.4,0.5,1.4,1.4v17.9c0,8.8-5.5,13.9-15.3,13.9C356.6,167.5,351.2,162.3,351.2,153.5z M387.9,165.4v-29.8
	c0-0.9,0.5-1.4,1.4-1.4h7.7c0.8,0,1.4,0.5,1.4,1.4v2.6c2.3-2.9,5.5-4.6,9.8-4.6c6.8,0,11.1,4.6,11.1,12.6v19.2
	c0,0.8-0.5,1.4-1.4,1.4h-7.5c-0.9,0-1.4-0.5-1.4-1.4V148c0-3.2-1.6-5.2-4.9-5.2s-5.7,2-5.7,6.1v16.5c0,0.8-0.5,1.4-1.4,1.4h-7.7
	C388.4,166.8,387.9,166.3,387.9,165.4z"/>
<path d="M144,61.4c0-4.3-3.1-8-7.3-8.8c-14.6-2.5-27.8-3.7-40.2-3.7s-25.6,1.2-40.2,3.7c-4.2,0.7-7.3,4.4-7.3,8.8c0,0,0,63.5,0,63.7
	c0,15.3,7.2,28.4,20.8,37.9c5.3,3.7,16.6,9.8,23,13c1.2,0.6,2.5,0.9,3.8,0.9s2.6-0.3,3.8-0.9c6.3-3.2,17.6-9.3,23-13
	c13.6-9.4,20.8-22.5,20.8-37.9C144,124.9,144,61.4,144,61.4z M137.3,139.7c-1.2,3.1-3.8,4.8-8,4.8c-4.6,0.1-6.3-1.6-7.9-3.1
	c-1.5-1.4-2.8-2.6-6.5-2.6c-3.7,0-6,1.2-8.6,2.7c-2.7,1.5-5.8,3.2-10.4,3.2c-4.6,0-6.3-1.7-7.8-3.1c-1.5-1.4-2.8-2.6-6.5-2.6
	c-3.7,0-6,1.2-8.6,2.7c-2.7,1.5-5.8,3.2-10.4,3.2c0,0,0,0,0,0c-4,0-5.4-1-6.2-2.6c-2.4-5.2-3.7-10.9-3.7-17c0-0.2,0-63.7,0-63.7
	c0-2.4,1.7-4.4,4-4.8c14.4-2.5,27.3-3.7,39.6-3.7s25.2,1.2,39.6,3.7c2.3,0.4,4,2.4,4,4.8c0,0,0,63.5,0,63.7
	C140,130.3,139.1,135.2,137.3,139.7z"/>
</svg>
